<svg width="39" height="38" viewBox="0 0 39 38" fill="none" xmlns="http://www.w3.org/2000/svg">
<ellipse cx="19.5" cy="19" rx="19.5" ry="19" fill="#5C5C5C" fill-opacity="0.5"/>
<path d="M18.4659 23.0909V22.9886C18.4773 21.9034 18.5909 21.0398 18.8068 20.3977C19.0227 19.7557 19.3295 19.2358 19.7273 18.8381C20.125 18.4403 20.6023 18.0739 21.1591 17.7386C21.4943 17.5341 21.7955 17.2926 22.0625 17.0142C22.3295 16.7301 22.5398 16.4034 22.6932 16.0341C22.8523 15.6648 22.9318 15.2557 22.9318 14.8068C22.9318 14.25 22.8011 13.767 22.5398 13.358C22.2784 12.9489 21.929 12.6335 21.4915 12.4119C21.054 12.1903 20.5682 12.0795 20.0341 12.0795C19.5682 12.0795 19.1193 12.1761 18.6875 12.3693C18.2557 12.5625 17.8949 12.8665 17.6051 13.2812C17.3153 13.696 17.1477 14.2386 17.1023 14.9091H14.9545C15 13.9432 15.25 13.1165 15.7045 12.429C16.1648 11.7415 16.7699 11.2159 17.5199 10.8523C18.2756 10.4886 19.1136 10.3068 20.0341 10.3068C21.0341 10.3068 21.9034 10.5057 22.642 10.9034C23.3864 11.3011 23.9602 11.8466 24.3636 12.5398C24.7727 13.233 24.9773 14.0227 24.9773 14.9091C24.9773 15.5341 24.8807 16.0994 24.6875 16.6051C24.5 17.1108 24.2273 17.5625 23.8693 17.9602C23.517 18.358 23.0909 18.7102 22.5909 19.017C22.0909 19.3295 21.6903 19.6591 21.3892 20.0057C21.0881 20.3466 20.8693 20.7528 20.733 21.2244C20.5966 21.696 20.5227 22.2841 20.5114 22.9886V23.0909H18.4659ZM19.5568 28.1364C19.1364 28.1364 18.7756 27.9858 18.4744 27.6847C18.1733 27.3835 18.0227 27.0227 18.0227 26.6023C18.0227 26.1818 18.1733 25.821 18.4744 25.5199C18.7756 25.2187 19.1364 25.0682 19.5568 25.0682C19.9773 25.0682 20.3381 25.2187 20.6392 25.5199C20.9403 25.821 21.0909 26.1818 21.0909 26.6023C21.0909 26.8807 21.0199 27.1364 20.8778 27.3693C20.7415 27.6023 20.5568 27.7898 20.3239 27.9318C20.0966 28.0682 19.8409 28.1364 19.5568 28.1364Z" fill="white"/>
</svg>
