<svg width="258" height="90" viewBox="0 0 258 90" fill="none" xmlns="http://www.w3.org/2000/svg">
<path d="M16.8196 80.3182C15.3196 80.3182 13.9825 80.0606 12.8082 79.5455C11.6416 79.0303 10.7135 78.3144 10.0241 77.3977C9.34233 76.4735 8.97112 75.4015 8.91051 74.1818H11.7741C11.8348 74.9318 12.0923 75.5795 12.5469 76.125C13.0014 76.6629 13.5961 77.0795 14.331 77.375C15.0658 77.6705 15.8802 77.8182 16.7741 77.8182C17.7741 77.8182 18.6605 77.6439 19.4332 77.2955C20.206 76.947 20.812 76.4621 21.2514 75.8409C21.6908 75.2197 21.9105 74.5 21.9105 73.6818C21.9105 72.8258 21.6984 72.072 21.2741 71.4205C20.8499 70.7614 20.2287 70.2462 19.4105 69.875C18.5923 69.5038 17.5923 69.3182 16.4105 69.3182H14.5469V66.8182H16.4105C17.3348 66.8182 18.1454 66.6515 18.8423 66.3182C19.5469 65.9848 20.0961 65.5152 20.4901 64.9091C20.8916 64.303 21.0923 63.5909 21.0923 62.7727C21.0923 61.9848 20.9181 61.2992 20.5696 60.7159C20.2211 60.1326 19.7287 59.678 19.0923 59.3523C18.4635 59.0265 17.7211 58.8636 16.8651 58.8636C16.062 58.8636 15.3045 59.0114 14.5923 59.3068C13.8878 59.5947 13.312 60.0152 12.8651 60.5682C12.4181 61.1136 12.1757 61.7727 12.1378 62.5455H9.41051C9.45597 61.3258 9.82339 60.2576 10.5128 59.3409C11.2022 58.4167 12.1037 57.697 13.2173 57.1818C14.3385 56.6667 15.5696 56.4091 16.9105 56.4091C18.3499 56.4091 19.5848 56.7008 20.6151 57.2841C21.6454 57.8598 22.437 58.6212 22.9901 59.5682C23.5431 60.5152 23.8196 61.5379 23.8196 62.6364C23.8196 63.947 23.4749 65.0644 22.7855 65.9886C22.1037 66.9129 21.1757 67.553 20.0014 67.9091V68.0909C21.4711 68.3333 22.6188 68.9583 23.4446 69.9659C24.2704 70.9659 24.6832 72.2045 24.6832 73.6818C24.6832 74.947 24.3385 76.0833 23.6491 77.0909C22.9673 78.0909 22.0355 78.8788 20.8537 79.4545C19.6719 80.0303 18.3272 80.3182 16.8196 80.3182ZM34.5128 80.4091C33.4067 80.4091 32.4029 80.2008 31.5014 79.7841C30.5999 79.3598 29.884 78.75 29.3537 77.9545C28.8234 77.1515 28.5582 76.1818 28.5582 75.0455C28.5582 74.0455 28.7552 73.2348 29.1491 72.6136C29.5431 71.9848 30.0696 71.4924 30.7287 71.1364C31.3878 70.7803 32.1151 70.5152 32.9105 70.3409C33.7135 70.1591 34.5204 70.0152 35.331 69.9091C36.3916 69.7727 37.2514 69.6705 37.9105 69.6023C38.5772 69.5265 39.062 69.4015 39.3651 69.2273C39.6757 69.053 39.831 68.75 39.831 68.3182V68.2273C39.831 67.1061 39.5241 66.2348 38.9105 65.6136C38.3045 64.9924 37.384 64.6818 36.1491 64.6818C34.8688 64.6818 33.8651 64.9621 33.1378 65.5227C32.4105 66.0833 31.8991 66.6818 31.6037 67.3182L29.0582 66.4091C29.5128 65.3485 30.1188 64.5227 30.8764 63.9318C31.6416 63.3333 32.4749 62.9167 33.3764 62.6818C34.2855 62.4394 35.1795 62.3182 36.0582 62.3182C36.6188 62.3182 37.2628 62.3864 37.9901 62.5227C38.7249 62.6515 39.4332 62.9205 40.1151 63.3295C40.8045 63.7386 41.3764 64.3561 41.831 65.1818C42.2855 66.0076 42.5128 67.1136 42.5128 68.5V80H39.831V77.6364H39.6946C39.5128 78.0152 39.2098 78.4205 38.7855 78.8523C38.3613 79.2841 37.7969 79.6515 37.0923 79.9545C36.3878 80.2576 35.5279 80.4091 34.5128 80.4091ZM34.9219 78C35.9825 78 36.8764 77.7917 37.6037 77.375C38.3385 76.9583 38.8916 76.4205 39.2628 75.7614C39.6416 75.1023 39.831 74.4091 39.831 73.6818V71.2273C39.7173 71.3636 39.4673 71.4886 39.081 71.6023C38.7022 71.7083 38.2628 71.803 37.7628 71.8864C37.2704 71.9621 36.7893 72.0303 36.3196 72.0909C35.8575 72.1439 35.4825 72.1894 35.1946 72.2273C34.4976 72.3182 33.8461 72.4659 33.2401 72.6705C32.6416 72.8674 32.1567 73.1667 31.7855 73.5682C31.4219 73.9621 31.2401 74.5 31.2401 75.1818C31.2401 76.1136 31.5848 76.8182 32.2741 77.2955C32.9711 77.7652 33.8537 78 34.9219 78ZM58.1804 62.5455V65.0455H50.0895V80H47.4077V62.5455H58.1804ZM62.0952 86.5455V62.5455H64.6861V65.3182H65.0043C65.2012 65.0152 65.474 64.6288 65.8224 64.1591C66.1785 63.6818 66.6861 63.2576 67.3452 62.8864C68.0118 62.5076 68.9134 62.3182 70.0497 62.3182C71.5194 62.3182 72.8149 62.6856 73.9361 63.4205C75.0573 64.1553 75.9323 65.197 76.5611 66.5455C77.1899 67.8939 77.5043 69.4848 77.5043 71.3182C77.5043 73.1667 77.1899 74.7689 76.5611 76.125C75.9323 77.4735 75.0611 78.5189 73.9474 79.2614C72.8338 79.9962 71.5497 80.3636 70.0952 80.3636C68.974 80.3636 68.0762 80.178 67.402 79.8068C66.7277 79.428 66.2088 79 65.8452 78.5227C65.4815 78.0379 65.2012 77.6364 65.0043 77.3182H64.777V86.5455H62.0952ZM64.7315 71.2727C64.7315 72.5909 64.9247 73.7538 65.3111 74.7614C65.6974 75.7614 66.2618 76.5455 67.0043 77.1136C67.7467 77.6742 68.6558 77.9545 69.7315 77.9545C70.8527 77.9545 71.7884 77.6591 72.5384 77.0682C73.2959 76.4697 73.8641 75.6667 74.2429 74.6591C74.6293 73.6439 74.8224 72.5152 74.8224 71.2727C74.8224 70.0455 74.633 68.9394 74.2543 67.9545C73.883 66.9621 73.3187 66.178 72.5611 65.6023C71.8111 65.0189 70.8679 64.7273 69.7315 64.7273C68.6406 64.7273 67.724 65.0038 66.9815 65.5568C66.2391 66.1023 65.6785 66.8674 65.2997 67.8523C64.9209 68.8295 64.7315 69.9697 64.7315 71.2727ZM82.6974 86.5455C82.2429 86.5455 81.8376 86.5076 81.4815 86.4318C81.1255 86.3636 80.8793 86.2955 80.7429 86.2273L81.4247 83.8636C82.0762 84.0303 82.652 84.0909 83.152 84.0455C83.652 84 84.0952 83.7765 84.4815 83.375C84.8755 82.9811 85.2353 82.3409 85.5611 81.4545L86.0611 80.0909L79.6065 62.5455H82.5156L87.3338 76.4545H87.5156L92.3338 62.5455H95.2429L87.8338 82.5455C87.5005 83.447 87.0876 84.1932 86.5952 84.7841C86.1027 85.3826 85.5308 85.8258 84.8793 86.1136C84.2353 86.4015 83.508 86.5455 82.6974 86.5455ZM97.6918 75.5455H100.555C100.616 76.3333 100.972 76.9318 101.624 77.3409C102.283 77.75 103.139 77.9545 104.192 77.9545C105.268 77.9545 106.188 77.7348 106.953 77.2955C107.718 76.8485 108.101 76.1288 108.101 75.1364C108.101 74.553 107.957 74.0455 107.669 73.6136C107.381 73.1742 106.976 72.8333 106.453 72.5909C105.93 72.3485 105.313 72.2273 104.601 72.2273H101.601V69.8182H104.601C105.669 69.8182 106.457 69.5758 106.964 69.0909C107.48 68.6061 107.737 68 107.737 67.2727C107.737 66.4924 107.461 65.8674 106.908 65.3977C106.355 64.9205 105.571 64.6818 104.555 64.6818C103.533 64.6818 102.68 64.9129 101.999 65.375C101.317 65.8295 100.957 66.4167 100.919 67.1364H98.1009C98.1312 66.197 98.419 65.3674 98.9645 64.6477C99.5099 63.9205 100.252 63.3523 101.192 62.9432C102.131 62.5265 103.207 62.3182 104.419 62.3182C105.646 62.3182 106.711 62.5341 107.612 62.9659C108.521 63.3902 109.222 63.9697 109.714 64.7045C110.214 65.4318 110.464 66.2576 110.464 67.1818C110.464 68.1667 110.188 68.9621 109.635 69.5682C109.082 70.1742 108.389 70.6061 107.555 70.8636V71.0455C108.214 71.0909 108.786 71.303 109.271 71.6818C109.764 72.053 110.146 72.5417 110.419 73.1477C110.692 73.7462 110.828 74.4091 110.828 75.1364C110.828 76.197 110.544 77.1212 109.976 77.9091C109.408 78.6894 108.627 79.2955 107.635 79.7273C106.643 80.1515 105.51 80.3636 104.237 80.3636C103.002 80.3636 101.896 80.1629 100.919 79.7614C99.9418 79.3523 99.1652 78.7879 98.5895 78.0682C98.0213 77.3409 97.7221 76.5 97.6918 75.5455ZM117.277 76.0455L125.686 62.5455H128.777V80H126.095V66.5L117.732 80H114.595V62.5455H117.277V76.0455ZM131.314 65.0455V62.5455H145.496V65.0455H139.768V80H137.087V65.0455H131.314ZM151.726 68.8636H156.726C158.771 68.8636 160.336 69.3826 161.419 70.4205C162.502 71.4583 163.044 72.7727 163.044 74.3636C163.044 75.4091 162.802 76.3598 162.317 77.2159C161.832 78.0644 161.12 78.7424 160.18 79.25C159.241 79.75 158.089 80 156.726 80H149.408V62.5455H152.089V77.5H156.726C157.786 77.5 158.658 77.2197 159.339 76.6591C160.021 76.0985 160.362 75.3788 160.362 74.5C160.362 73.5758 160.021 72.822 159.339 72.2386C158.658 71.6553 157.786 71.3636 156.726 71.3636H151.726V68.8636ZM183.217 85.9545V56.7273H185.899V85.9545H183.217ZM183.217 80.3636C182.036 80.3636 180.96 80.1515 179.99 79.7273C179.02 79.2955 178.187 78.6856 177.49 77.8977C176.793 77.1023 176.255 76.1515 175.876 75.0455C175.498 73.9394 175.308 72.7121 175.308 71.3636C175.308 70 175.498 68.7652 175.876 67.6591C176.255 66.5455 176.793 65.5909 177.49 64.7955C178.187 64 179.02 63.3902 179.99 62.9659C180.96 62.5341 182.036 62.3182 183.217 62.3182H184.036V80.3636H183.217ZM183.217 77.9545H183.672V64.7273H183.217C182.323 64.7273 181.547 64.9091 180.888 65.2727C180.229 65.6288 179.683 66.1174 179.251 66.7386C178.827 67.3523 178.509 68.0568 178.297 68.8523C178.092 69.6477 177.99 70.4848 177.99 71.3636C177.99 72.5303 178.176 73.6136 178.547 74.6136C178.918 75.6136 179.49 76.4205 180.263 77.0341C181.036 77.6477 182.02 77.9545 183.217 77.9545ZM185.899 80.3636H185.081V62.3182H185.899C187.081 62.3182 188.157 62.5341 189.126 62.9659C190.096 63.3902 190.929 64 191.626 64.7955C192.323 65.5909 192.861 66.5455 193.24 67.6591C193.619 68.7652 193.808 70 193.808 71.3636C193.808 72.7121 193.619 73.9394 193.24 75.0455C192.861 76.1515 192.323 77.1023 191.626 77.8977C190.929 78.6856 190.096 79.2955 189.126 79.7273C188.157 80.1515 187.081 80.3636 185.899 80.3636ZM185.899 77.9545C186.801 77.9545 187.577 77.7803 188.229 77.4318C188.888 77.0758 189.429 76.5909 189.854 75.9773C190.286 75.3561 190.604 74.6515 190.808 73.8636C191.02 73.0682 191.126 72.2348 191.126 71.3636C191.126 70.197 190.941 69.1098 190.57 68.1023C190.198 67.0947 189.626 66.2803 188.854 65.6591C188.081 65.0379 187.096 64.7273 185.899 64.7273H185.445V77.9545H185.899ZM203.044 80.4091C201.938 80.4091 200.934 80.2008 200.033 79.7841C199.131 79.3598 198.415 78.75 197.885 77.9545C197.355 77.1515 197.089 76.1818 197.089 75.0455C197.089 74.0455 197.286 73.2348 197.68 72.6136C198.074 71.9848 198.601 71.4924 199.26 71.1364C199.919 70.7803 200.646 70.5152 201.442 70.3409C202.245 70.1591 203.052 70.0152 203.862 69.9091C204.923 69.7727 205.783 69.6705 206.442 69.6023C207.108 69.5265 207.593 69.4015 207.896 69.2273C208.207 69.053 208.362 68.75 208.362 68.3182V68.2273C208.362 67.1061 208.055 66.2348 207.442 65.6136C206.836 64.9924 205.915 64.6818 204.68 64.6818C203.4 64.6818 202.396 64.9621 201.669 65.5227C200.942 66.0833 200.43 66.6818 200.135 67.3182L197.589 66.4091C198.044 65.3485 198.65 64.5227 199.408 63.9318C200.173 63.3333 201.006 62.9167 201.908 62.6818C202.817 62.4394 203.711 62.3182 204.589 62.3182C205.15 62.3182 205.794 62.3864 206.521 62.5227C207.256 62.6515 207.964 62.9205 208.646 63.3295C209.336 63.7386 209.908 64.3561 210.362 65.1818C210.817 66.0076 211.044 67.1136 211.044 68.5V80H208.362V77.6364H208.226C208.044 78.0152 207.741 78.4205 207.317 78.8523C206.893 79.2841 206.328 79.6515 205.624 79.9545C204.919 80.2576 204.059 80.4091 203.044 80.4091ZM203.453 78C204.514 78 205.408 77.7917 206.135 77.375C206.87 76.9583 207.423 76.4205 207.794 75.7614C208.173 75.1023 208.362 74.4091 208.362 73.6818V71.2273C208.249 71.3636 207.999 71.4886 207.612 71.6023C207.233 71.7083 206.794 71.803 206.294 71.8864C205.802 71.9621 205.321 72.0303 204.851 72.0909C204.389 72.1439 204.014 72.1894 203.726 72.2273C203.029 72.3182 202.377 72.4659 201.771 72.6705C201.173 72.8674 200.688 73.1667 200.317 73.5682C199.953 73.9621 199.771 74.5 199.771 75.1818C199.771 76.1136 200.116 76.8182 200.805 77.2955C201.502 77.7652 202.385 78 203.453 78ZM218.621 76.0455L227.03 62.5455H230.121V80H227.439V66.5L219.075 80H215.939V62.5455H218.621V76.0455ZM225.257 56.7273H227.757C227.757 57.9545 227.333 58.9583 226.484 59.7386C225.636 60.5189 224.484 60.9091 223.03 60.9091C221.598 60.9091 220.458 60.5189 219.609 59.7386C218.768 58.9583 218.348 57.9545 218.348 56.7273H220.848C220.848 57.3182 221.011 57.8371 221.337 58.2841C221.67 58.7311 222.234 58.9545 223.03 58.9545C223.825 58.9545 224.393 58.7311 224.734 58.2841C225.083 57.8371 225.257 57.3182 225.257 56.7273ZM233.487 80V77.5H234.124C234.646 77.5 235.082 77.3977 235.43 77.1932C235.779 76.9811 236.059 76.6136 236.271 76.0909C236.491 75.5606 236.658 74.8258 236.771 73.8864C236.893 72.9394 236.98 71.7348 237.033 70.2727L237.351 62.5455H248.987V80H246.305V65.0455H239.896L239.624 71.2727C239.563 72.7045 239.434 73.9659 239.237 75.0568C239.048 76.1402 238.756 77.0492 238.362 77.7841C237.976 78.5189 237.461 79.072 236.817 79.4432C236.173 79.8144 235.366 80 234.396 80H233.487Z" fill="#F7F4A4"/>
<path d="M107 36V47H152V36" stroke="#F7F4A4" stroke-width="4"/>
<path d="M130.414 0.585785C129.633 -0.195263 128.367 -0.195263 127.586 0.585785L114.858 13.3137C114.077 14.0948 114.077 15.3611 114.858 16.1421C115.639 16.9232 116.905 16.9232 117.686 16.1421L129 4.82843L140.314 16.1421C141.095 16.9232 142.361 16.9232 143.142 16.1421C143.923 15.3611 143.923 14.0948 143.142 13.3137L130.414 0.585785ZM131 36V2H127V36H131Z" fill="#F7F4A4"/>
</svg>
